# xmcd CD database file
#
# Track frame offsets:
#	150
#	23558
#	43470
#	64992
#	85344
#	110037
#	132177
#	150709
#	171866
#	192322
#	211910
#	230514
#	253649
#	281708
#
# Disc length: 3985 seconds
#
# Revision: 2
# Processed by: cddbd v1.5.1PL0 Copyright (c) Steve Scherf et al.
# Submitted via: CDex 1.50
#
DISCID=cd0f8f0e
DTITLE=Joe Arroyo - La verdadera Historia de Joe Arroyo
DYEAR=2005
DGENRE=Salsa
TTITLE0=En Barranquilla Me Quedo
TTITLE1=Noche
TTITLE2=Rebelión
TTITLE3=Pa'L Bailador
TTITLE4=Mary
TTITLE5=Mi Dios Todo le Debo
TTITLE6=Wchao Palante
TTITLE7=Centurión de la Noche
TTITLE8=Guerra de los Callados
TTITLE9=Negro Chombo
TTITLE10=Manyoma
TTITLE11=Cabañuelas
TTITLE12=Patrona de los Reclusos
TTITLE13=Mala Mujer
EXTD=YEAR: 2005
EXTT0=
EXTT1=
EXTT2=
EXTT3=
EXTT4=
EXTT5=
EXTT6=
EXTT7=
EXTT8=
EXTT9=
EXTT10=
EXTT11=
EXTT12=
EXTT13=
PLAYORDER=
